<svg xmlns:xlink="http://www.w3.org/1999/xlink" xmlns="http://www.w3.org/2000/svg" height="2160pt" width="2880pt" version="1.1" viewBox="0,0,2880,2160"><g id="Layer_3"><path d="M515.307+1448.47C515.851+1448.27+516.399+1447.82+516.723+1447.13C517.048+1446.44+517.138+1445.51+516.799+1444.57C516.46+1443.63+515.68+1442.68+514.486+1442.11C513.293+1441.55+511.683+1441.4+510.048+1441.98C508.414+1442.57+506.77+1443.92+505.795+1445.99C504.82+1448.06+504.549+1450.85+505.567+1453.68C506.584+1456.51+508.929+1459.36+512.513+1461.05C516.096+1462.74+520.931+1463.21+525.839+1461.45C530.747+1459.68+535.684+1455.62+538.611+1449.41C541.539+1443.2+542.352+1434.82+539.296+1426.32C536.241+1417.81+529.2+1409.26+518.439+1404.19C507.678+1399.11+493.161+1397.7+478.422+1403C463.684+1408.29+448.859+1420.49+440.069+1439.14C431.278+1457.79+428.836+1482.95+438.011+1508.49C447.187+1534.03+468.33+1559.71+500.643+1574.95C532.957+1590.18+576.549+1594.41+620.806+1578.51C665.064+1562.61+709.579+1525.97+735.976+1469.98C762.372+1413.98+769.705+1338.44+742.154+1261.75C714.602+1185.06+651.113+1107.92+554.081+1062.18C457.048+1016.44+326.148+1003.73+193.25+1051.47" stroke="#ebcd49" stroke-width="9.76361" fill="none" opacity="1" stroke-linejoin="round"/> </g> <g id="Layer_4"> <path d="M107.359+1084.03C107.359+1084.03+525.007+903.675+817.649+1006.96C1028.8+1081.48+1035.9+1269.57+1474.17+1248.28C1905.89+1227.3+2009.1+1493.28+2157.31+1505.56" stroke="#ebcd49" stroke-width="9.76361" fill="none" opacity="1" stroke-linejoin="round"/> </g> <g id="Layer_5"> <path d="M60.1801+1169.69C60.1801+1169.69+97.2298+1005.13+435.997+899.857C607.823+846.461+787.287+828.813+1009.48+858.639C1159.43+878.768+1272.43+916.871+1424.54+1035.5C1553.46+1136.03+1800.93+1269.47+1984.34+1250.52C2137.91+1234.65+2168.26+1156.17+2361.52+1185.96C2554.77+1215.75+2502.43+1359.08+2502.43+1359.08" stroke="#ebcd49" stroke-width="9.76361" fill="none" opacity="1" stroke-linejoin="round"/> </g> <g id="Layer_6"> <path d="M58.4331+1139.49C58.4331+1139.49+595.186+772.312+1070.1+932.893C1545.01+1093.47+1574.42+1485.34+1808.61+1574.13C2034.8+1659.88+2208.92+1584.46+2334.56+1447.16C2478.57+1289.79+2163.59+1125.06+2151.07+1372.89" stroke="#ebcd49" stroke-width="9.76361" fill="none" opacity="1" stroke-linejoin="round"/> </g> <g id="Layer_7"> <path d="M2697.25+1367.63C2697.26+1367.62+2697.27+1367.61+2697.27+1367.58C2697.28+1367.56+2697.27+1367.53+2697.25+1367.5C2697.22+1367.47+2697.18+1367.45+2697.12+1367.44C2697.06+1367.44+2696.99+1367.45+2696.91+1367.51C2696.84+1367.57+2696.77+1367.68+2696.76+1367.83C2696.74+1367.98+2696.79+1368.18+2696.94+1368.36C2697.1+1368.55+2697.37+1368.73+2697.75+1368.76C2698.14+1368.8+2698.65+1368.69+2699.13+1368.3C2699.61+1367.9+2700.06+1367.2+2700.15+1366.21C2700.25+1365.22+2699.97+1363.92+2698.95+1362.69C2697.94+1361.45+2696.15+1360.3+2693.6+1360.05C2691.05+1359.81+2687.72+1360.52+2684.55+1363.13C2681.39+1365.74+2678.42+1370.33+2677.8+1376.87C2677.17+1383.4+2679.01+1391.97+2685.7+1400.09C2692.39+1408.2+2704.18+1415.82+2720.95+1417.43C2737.73+1419.04+2759.71+1414.32+2780.53+1397.14C2801.35+1379.96+2820.92+1349.71+2825.04+1306.67C2829.17+1263.63+2845.14+1186.38+2804.03+1130.63C2729.61+1029.69+2637.05+993.048+2526.1+994.743C2422.51+996.326+2404.63+1009.24+2176.7+1110.91C2003.07+1188.36+1840.68+1154.71+1701.9+1071.05C1472.65+932.863+1350.78+844.932+1074.58+783.203C855.925+734.333+639.374+729.896+413.839+862.455C246.378+960.882+302.52+1033.25+69.2056+1111.02" stroke="#ebcd49" stroke-width="9.76361" fill="none" opacity="1" stroke-linejoin="round"/> <path d="M73.3651+1098.28" stroke="#ebcd49" stroke-width="9.76361" fill="none" opacity="1" stroke-linejoin="round"/> </g> <g id="Layer_8"> <path d="M1931.64+550.025C1932.14+547.484+1933.76+544.868+1936.4+543.103C1939.04+541.338+1942.71+540.47+1946.54+541.232C1950.36+541.993+1954.29+544.423+1956.95+548.399C1959.6+552.374+1960.91+557.896+1959.76+563.646C1958.62+569.397+1954.96+575.319+1948.98+579.313C1943+583.306+1934.69+585.271+1926.04+583.548C1917.39+581.825+1908.48+576.324+1902.47+567.326C1896.47+558.329+1893.51+545.831+1896.1+532.817C1898.7+519.802+1906.97+506.399+1920.51+497.36C1934.04+488.321+1952.84+483.874+1972.42+487.774C1992+491.674+2012.17+504.124+2025.77+524.488C2039.36+544.852+2046.05+573.137+2040.19+602.593C2034.32+632.049+2015.59+662.383+1984.95+682.841C1954.32+703.299+1911.77+713.364+1867.45+704.537C1823.14+695.709+1777.5+667.532+1746.72+621.443C1715.95+575.354+1700.81+511.336+1714.09+444.67C1727.37+378.003+1769.76+309.349+1839.09+263.046C1908.43+216.744+2004.74+193.965+2105.03+213.943C2205.33+233.922+2308.61+297.694+2378.27+402.007C2447.93+506.32+2482.2+651.208+2452.14+802.094C2452.14+802.094+2373.71+1121.84+2025.27+1061.1C1756.89+1014.32+1748.16+945.58+1381.39+797.499C941.154+619.758+739.017+553.141+456.283+692.186C286.822+775.525+230.527+1008.28+90.1559+1143.28" stroke="#ebcd49" stroke-width="9.76361" fill="none" opacity="1" stroke-linejoin="round"/> </g> <g id="Layer_9"> <path d="M2193.09+1042.23C2193.09+1026.23+2211.75+1013.26+2234.77+1013.26C2257.79+1013.26+2276.45+1026.23+2276.45+1042.23C2276.45+1058.24+2257.79+1071.21+2234.77+1071.21C2211.75+1071.21+2193.09+1058.24+2193.09+1042.23Z" opacity="1" fill="#ebcd49"/> <path d="M2273.09+1037.57L2267.4+1037.12L2273.19+850.325C2273.19+850.325+2331.64+857.659+2337.73+923.495C2337.73+923.495+2314.63+860.523+2284.16+872.112L2273.09+1037.57Z" opacity="1" fill="#ebcd49"/> </g> <g id="Layer_10"> <path d="M1373.47+1274.93C1379.66+1260.17+1401.89+1255.43+1423.12+1264.33C1444.34+1273.24+1456.53+1292.42+1450.34+1307.18C1444.15+1321.93+1421.93+1326.68+1400.7+1317.78C1379.47+1308.87+1367.28+1289.69+1373.47+1274.93ZM1449.05+1301.58L1443.98+1298.96L1521.56+1128.94C1521.56+1128.94+1572.63+1158.31+1552.78+1221.38C1552.78+1221.38+1555.83+1154.38+1523.25+1153.28L1449.05+1301.58Z" opacity="1" fill="#ebcd49"/> <path d="M1376.47+716.566C1376.47+735.259+1355.11+750.412+1328.76+750.412C1302.41+750.412+1281.05+735.259+1281.05+716.566C1281.05+697.872+1302.41+682.719+1328.76+682.719C1355.11+682.719+1376.47+697.872+1376.47+716.566ZM1280.74+715.889L1296.24+925.523" stroke="#ebcd49" stroke-width="9.76361" fill="none" opacity="1" stroke-linejoin="round"/> </g> <g id="Layer_11"> <path d="M1541.46+983.979C1541.46+967.975+1560.12+955.002+1583.14+955.002C1606.16+955.002+1624.82+967.975+1624.82+983.979C1624.82+999.982+1606.16+1012.96+1583.14+1012.96C1560.12+1012.96+1541.46+999.982+1541.46+983.979ZM1666.02+985.527C1666.02+969.524+1684.68+956.551+1707.7+956.551C1730.72+956.551+1749.38+969.524+1749.38+985.527C1749.38+1001.53+1730.72+1014.5+1707.7+1014.5C1684.68+1014.5+1666.02+1001.53+1666.02+985.527ZM1606.66+976.671L1599.27+764.256L1746.21+737.531L1743.43+983.684L1731.71+982.305L1730.13+801.632L1611.62+817.285L1613.59+805.313L1730.25+788.183L1729.75+756.007L1613.75+776.451L1624.55+980.465L1606.66+976.671Z" opacity="1" fill="#ebcd49"/> <path d="M1808.27+1494.62C1808.27+1478.62+1826.93+1465.64+1849.95+1465.64C1872.97+1465.64+1891.63+1478.62+1891.63+1494.62C1891.63+1510.62+1872.97+1523.6+1849.95+1523.6C1826.93+1523.6+1808.27+1510.62+1808.27+1494.62ZM1932.83+1496.17C1932.83+1480.17+1951.49+1467.19+1974.51+1467.19C1997.53+1467.19+2016.19+1480.17+2016.19+1496.17C2016.19+1512.17+1997.53+1525.15+1974.51+1525.15C1951.49+1525.15+1932.83+1512.17+1932.83+1496.17ZM1873.47+1487.31L1866.08+1274.9L2013.03+1248.17L2010.24+1494.33L1998.52+1492.95L1996.94+1312.27L1878.43+1327.93L1880.4+1315.96L1997.06+1298.83L1996.56+1266.65L1880.56+1287.09L1891.36+1491.11L1873.47+1487.31Z" opacity="1" fill="#ebcd49"/> </g> <g id="Layer_12"> <path d="M647.276+497.614C647.276+497.614+561.534+519.5+627.383+733.076C627.383+733.076+442.518+1051.97+765.259+1010.37C765.259+1010.37+857.862+1197.8+739.668+1104.17C739.668+1104.17+776.548+1079.91+770.015+1053.31C770.015+1053.31+719.339+994.32+705.401+1096.76C705.401+1096.76+867.632+1251.4+826.837+1058.87C818.944+1021.62+812.571+997.811+807.475+983.002C843.834+944.632+964.502+796.829+671.86+790.778L661.112+745.97C661.112+745.97+734.344+591.836+647.276+497.614ZM646.417+566.453C647.712+566.103+649.078+565.91+650.533+565.852C650.533+565.852+709.924+569.721+641.058+723.764C641.058+723.764+606.247+577.284+646.417+566.453ZM646.167+776.148L669.531+819.707C669.531+819.707+612.192+922.934+708.967+942.373C708.967+942.373+640.616+875.79+698.177+860.277L763.143+980.007C763.143+980.007+507.143+1048.75+646.167+776.148ZM713.501+850.934C907.765+830.425+785.51+972.874+785.51+972.874L713.501+850.934Z" opacity="1" fill="#ebcd49"/> <path d="M929.52+793.103C935.71+778.345+957.937+773.6+979.165+782.504C1000.39+791.408+1012.59+810.59+1006.4+825.347C1000.21+840.105+977.978+844.851+956.75+835.947C935.521+827.043+923.33+807.861+929.52+793.103ZM1005.1+819.748L1000.03+817.136L1077.62+647.115C1077.62+647.115+1128.68+676.484+1108.83+739.555C1108.83+739.555+1111.89+672.548+1079.3+671.447L1005.1+819.748Z" opacity="1" fill="#ebcd49"/> </g> </svg>
